/* XPM */
static char *chatzilla[] = {
/* columns rows colors chars-per-pixel */
"16 16 33 1",
"  c #374552",
". c #E8EAEB",
"X c gray100",
"o c #56626D",
"O c #9199A0",
"+ c #E8E9EB",
"@ c #626D77",
"# c #D2D5D8",
"$ c #BCC1C5",
"% c #79838B",
"& c #ABB1B6",
"* c #8F979E",
"= c #4C5964",
"- c #B0B6BB",
"; c #A5ABB1",
": c #7B858D",
"> c #4F5B66",
", c #7D868F",
"< c #C6CACE",
"1 c #E1E3E5",
"2 c gray100",
"3 c gray100",
"4 c gray100",
"5 c gray100",
"6 c gray100",
"7 c gray100",
"8 c gray100",
"9 c gray100",
"0 c gray100",
"q c gray100",
"w c gray100",
"e c gray100",
"r c None",
/* pixels */
"rrrrrrrrrrrrrrrr",
"rrrrrrrrrrrrrrrr",
"rrrrrrrrrrrrrrrr",
"rrrrrrrrrrrrrrrr",
"rrrrrrrr        ",
"rrrrrrrr .XXXXXo",
"rr      O+@ #X$ ",
"r %+X+% &o *X+= ",
" @X# #X r @XX@ r",
" $X% @-  =+X*   ",
" $X%  =  $X$  ;%",
" @X+=@X:%X+==;X>",
"r ,+X+< +XXXXX1 ",
"rr              ",
"rrrrrrrrrrrrrrrr",
"rrrrrrrrrrrrrrrr"
};
